<?xml version="1.0" encoding="UTF-8"?>
<svg width="40px" height="40px" viewBox="0 0 40 40" version="1.1" xmlns="http://www.w3.org/2000/svg" xmlns:xlink="http://www.w3.org/1999/xlink">
    <!-- Generator: Sketch 41.2 (35397) - http://www.bohemiancoding.com/sketch -->
    <title>Artboard</title>
    <desc>Created with Sketch.</desc>
    <defs></defs>
    <g id="Page-1" stroke="none" stroke-width="1" fill="none" fill-rule="evenodd">
        <g id="Artboard" fill="#0A0A08">
            <path d="M19.9251943,17.3644264 L12.9182928,24.3266486 L17.2506721,24.3266486 L17.2506721,33.0019819 L22.5994276,33.0019819 L22.5994276,24.3266486 L26.9318068,24.3266486 L19.9251943,17.3644264 L19.9251943,17.3644264 Z M14.1949006,11.6530931 L31.5818939,11.6530931 L31.5818939,9.86198194 L14.1949006,9.86198194 L14.1949006,11.6530931 Z M12.2017173,11.8119819 C11.6032713,11.8119819 11.1186225,11.3382042 11.1186225,10.7575375 C11.1186225,10.1739819 11.6032713,9.70309305 12.2017173,9.70309305 C12.8004521,9.70309305 13.2848121,10.1739819 13.2848121,10.7575375 C13.2848121,11.3382042 12.8004521,11.8119819 12.2017173,11.8119819 L12.2017173,11.8119819 Z M9.31346446,11.8119819 C8.71501846,11.8119819 8.23036964,11.3382042 8.23036964,10.7575375 C8.23036964,10.1739819 8.71501846,9.70309305 9.31346446,9.70309305 C9.91219927,9.70309305 10.3965593,10.1739819 10.3965593,10.7575375 C10.3965593,11.3382042 9.91219927,11.8119819 9.31346446,11.8119819 L9.31346446,11.8119819 Z M31.5530114,7.00198194 L8.4469886,7.00198194 C6.85844953,7.00198194 5.55873575,8.30198194 5.55873575,9.89087083 L5.55873575,27.2242042 C5.55873575,28.8130931 6.85844953,30.0842042 8.4469886,30.0842042 L14.1949006,30.0842042 L14.1949006,27.2530931 L8.4183949,27.2530931 L8.4183949,13.9353153 L31.5818939,13.9353153 L31.5818939,27.2530931 L25.8053882,27.2530931 L25.8053882,30.0842042 L31.5530114,30.0842042 C33.1415505,30.0842042 34.4412642,28.8130931 34.4412642,27.2242042 L34.4412642,9.89087083 C34.4412642,8.30198194 33.1415505,7.00198194 31.5530114,7.00198194 L31.5530114,7.00198194 Z" id="Fill-98"></path>
        </g>
    </g>
</svg>